<?xml version="1.0" standalone="no"?>
<!DOCTYPE svg PUBLIC "-//W3C//DTD SVG 20010904//EN"
 "http://www.w3.org/TR/2001/REC-SVG-20010904/DTD/svg10.dtd">
<svg version="1.0" xmlns="http://www.w3.org/2000/svg"
 width="2000.000000pt" height="2000.000000pt" viewBox="0 0 2000.000000 2000.000000"
 preserveAspectRatio="xMidYMid meet">
<metadata>
Created by potrace 1.11, written by Peter Selinger 2001-2013
</metadata>
<g transform="translate(0.000000,2000.000000) scale(0.100000,-0.100000)"
fill="#000000" stroke="none">
<path d="M9845 19225 c-173 -48 -325 -183 -385 -341 -77 -208 -27 -430 134
-589 256 -254 659 -206 854 102 132 207 109 472 -58 656 -108 119 -236 178
-395 182 -61 2 -119 -2 -150 -10z"/>
<path d="M14664 18720 c-103 -21 -238 -120 -283 -208 -42 -82 -50 -123 -48
-228 2 -93 5 -106 39 -175 139 -281 488 -338 703 -114 294 307 10 808 -411
725z"/>
<path d="M5083 18694 c-94 -24 -192 -95 -243 -175 -191 -297 19 -683 369 -680
232 2 426 201 424 437 -2 201 -122 358 -318 417 -63 18 -164 19 -232 1z"/>
<path d="M13429 16786 c-2 -2 -20 -7 -39 -10 -208 -33 -402 -189 -494 -398
-52 -117 -67 -297 -36 -423 120 -479 710 -669 1092 -350 74 62 121 121 165
210 53 105 67 168 67 300 1 106 -2 130 -28 209 -69 209 -231 370 -441 436 -48
15 -103 24 -176 26 -58 2 -108 2 -110 0z"/>
<path d="M6311 16755 c-66 -15 -221 -82 -221 -96 0 -4 -8 -10 -19 -14 -29 -9
-124 -107 -169 -175 -35 -53 -77 -144 -87 -190 -2 -8 -8 -35 -14 -60 -10 -45
-8 -212 3 -263 34 -151 144 -317 265 -400 59 -41 150 -87 171 -87 9 0 21 -5
28 -12 7 -7 12 -9 12 -6 0 3 22 0 49 -7 64 -17 191 -17 267 0 244 53 429 220
507 460 29 91 33 270 7 363 -64 231 -215 392 -438 469 -95 32 -260 41 -361 18z"/>
<path d="M9860 16219 c-104 -18 -144 -31 -230 -74 -382 -191 -541 -651 -360
-1042 198 -426 718 -583 1127 -342 74 44 219 188 262 261 77 133 113 266 113
423 0 196 -67 368 -207 533 -11 13 -47 46 -80 72 -140 112 -299 170 -475 174
-58 2 -125 -1 -150 -5z"/>
<path d="M17395 14900 c-176 -38 -322 -157 -398 -324 -70 -153 -54 -372 38
-511 161 -242 460 -325 720 -200 126 61 227 176 277 317 31 89 31 266 0 352
-62 169 -183 289 -349 347 -65 23 -223 34 -288 19z"/>
<path d="M2338 14865 c-59 -15 -162 -63 -200 -93 -186 -147 -261 -369 -203
-597 34 -131 158 -279 286 -340 226 -107 468 -67 640 106 78 79 134 183 154
290 9 44 7 154 -4 205 -14 74 -39 131 -84 199 -68 101 -157 171 -272 215 -77
29 -234 36 -317 15z"/>
<path d="M8279 14096 c-2 -2 -27 -6 -56 -10 -74 -9 -196 -39 -283 -71 -294
-107 -584 -364 -723 -641 -116 -231 -159 -417 -152 -664 2 -74 7 -151 10 -170
68 -386 274 -703 595 -917 141 -94 306 -162 485 -199 124 -25 386 -26 504 -1
404 86 721 314 920 662 73 128 136 301 155 430 2 17 8 50 12 75 10 65 7 273
-6 355 -46 298 -174 549 -385 760 -184 184 -396 301 -653 361 -82 19 -144 26
-263 30 -85 2 -157 3 -160 0z"/>
<path d="M11479 14096 c-2 -2 -31 -6 -64 -9 -33 -4 -71 -9 -85 -12 -14 -2 -38
-7 -55 -11 -59 -12 -202 -63 -270 -96 -179 -89 -244 -136 -390 -283 -283 -287
-418 -682 -371 -1095 31 -278 169 -566 369 -770 354 -360 847 -490 1346 -356
115 31 257 99 383 182 106 70 273 240 348 354 124 190 179 335 225 600 9 46 8
253 0 310 -12 89 -16 106 -36 185 -38 151 -113 311 -206 443 -75 106 -235 259
-348 333 -188 122 -335 179 -560 215 -37 6 -281 14 -286 10z"/>
<path d="M14545 13505 c-322 -69 -566 -321 -624 -645 -10 -57 -8 -232 3 -285
63 -291 273 -516 566 -606 100 -31 310 -33 410 -5 293 83 521 325 576 611 2
11 6 31 9 45 7 33 7 174 0 225 -19 136 -95 299 -190 406 -32 36 -136 125 -170
146 -27 17 -147 75 -160 77 -5 2 -35 10 -65 20 -71 22 -272 29 -355 11z"/>
<path d="M5145 13485 c-279 -50 -505 -243 -605 -515 -103 -284 -24 -620 197
-831 93 -90 225 -164 348 -198 405 -108 829 129 954 534 30 94 35 132 34 250
-1 256 -131 494 -348 637 -172 113 -383 158 -580 123z"/>
<path d="M13105 11353 c-282 -23 -494 -97 -710 -248 -92 -65 -196 -161 -262
-243 -21 -26 -41 -48 -45 -50 -5 -2 -8 -10 -8 -17 0 -7 -4 -15 -8 -17 -12 -5
-85 -126 -114 -189 -31 -65 -86 -218 -93 -256 -2 -15 -9 -49 -15 -77 -15 -77
-20 -131 -20 -241 0 -235 42 -415 142 -613 191 -376 546 -642 959 -718 142
-26 378 -23 508 7 25 6 56 13 68 15 32 6 227 76 233 83 3 3 28 17 55 29 145
69 347 241 458 392 136 185 233 434 255 650 12 124 6 308 -14 415 -8 48 -50
185 -74 245 -88 222 -281 465 -468 587 -31 21 -59 40 -62 43 -16 19 -219 112
-300 138 -110 35 -152 44 -265 57 -68 7 -175 11 -220 8z"/>
<path d="M6689 11336 c-2 -2 -30 -6 -62 -10 -32 -3 -62 -8 -66 -10 -4 -3 -23
-8 -42 -11 -61 -11 -206 -64 -291 -106 -403 -201 -668 -569 -736 -1024 -13
-93 -7 -344 12 -435 112 -543 515 -950 1057 -1067 118 -25 420 -25 534 0 359
81 647 271 845 557 154 222 234 484 234 765 -1 282 -72 518 -229 755 -164 248
-414 435 -706 528 -92 29 -116 35 -229 52 -52 8 -314 12 -321 6z"/>
<path d="M16978 10685 c-2 -2 -20 -6 -41 -9 -166 -26 -350 -147 -441 -288 -38
-60 -79 -154 -92 -208 -4 -19 -9 -42 -11 -50 -13 -52 -8 -204 8 -271 62 -247
242 -430 494 -500 70 -19 254 -18 330 3 352 97 567 452 486 800 -60 255 -241
440 -494 505 -50 12 -230 26 -239 18z"/>
<path d="M2897 10654 c-1 -1 -22 -4 -47 -7 -64 -8 -97 -16 -163 -43 -197 -82
-347 -257 -398 -464 -20 -81 -18 -262 4 -335 45 -151 152 -300 274 -381 62
-41 175 -90 232 -102 39 -7 256 -8 281 0 8 2 31 8 50 12 19 5 73 27 120 49
123 60 232 171 294 299 131 273 83 561 -129 773 -91 91 -177 142 -295 174 -60
16 -213 34 -223 25z"/>
<path d="M19463 10444 c-208 -53 -349 -247 -329 -453 25 -267 252 -441 516
-396 57 9 155 57 197 95 156 142 194 351 98 540 -28 56 -115 142 -175 174 -92
49 -212 65 -307 40z"/>
<path d="M370 10408 c-204 -24 -369 -212 -368 -421 1 -262 209 -458 467 -441
67 4 89 10 156 43 307 152 327 583 36 758 -93 56 -180 74 -291 61z"/>
<path d="M8280 8588 c-315 -32 -594 -168 -825 -402 -150 -152 -261 -336 -324
-541 -50 -162 -60 -241 -56 -420 3 -172 5 -182 41 -323 95 -367 356 -686 699
-856 202 -100 362 -139 580 -140 171 -1 244 7 369 39 282 73 523 231 704 460
34 44 67 85 72 91 5 7 29 49 54 95 120 222 169 412 169 659 1 181 -26 322 -93
495 -158 402 -512 712 -928 810 -37 9 -77 18 -90 21 -85 18 -260 23 -372 12z"/>
<path d="M11400 8589 c-90 -18 -225 -51 -235 -59 -5 -4 -23 -10 -40 -14 -47
-12 -202 -92 -295 -154 -103 -68 -268 -230 -338 -331 -94 -135 -196 -365 -217
-491 -3 -19 -8 -42 -10 -50 -27 -92 -23 -357 9 -515 68 -341 294 -664 601
-859 109 -69 149 -89 299 -141 204 -72 453 -88 676 -44 30 7 60 12 65 13 6 1
54 17 108 35 192 64 369 173 518 321 199 198 314 411 374 695 21 95 28 330 14
430 -62 444 -333 827 -724 1026 -113 57 -227 98 -325 118 -30 6 -68 13 -85 17
-47 10 -345 12 -395 3z"/>
<path d="M14657 8084 c-1 -1 -27 -5 -57 -8 -200 -24 -400 -146 -526 -322 -168
-234 -196 -545 -72 -804 17 -36 34 -67 37 -70 3 -3 13 -18 21 -33 19 -39 136
-157 194 -196 253 -174 573 -195 836 -54 161 87 281 223 363 413 61 141 68
349 16 515 -90 292 -344 510 -644 551 -48 6 -163 12 -168 8z"/>
<path d="M5161 8048 c-156 -28 -301 -104 -420 -220 -91 -90 -152 -189 -197
-325 -36 -107 -42 -309 -13 -423 51 -199 172 -365 349 -479 64 -41 169 -87
221 -96 18 -3 35 -8 38 -10 11 -6 94 -14 162 -15 206 -5 421 88 568 245 103
110 159 213 196 357 19 76 23 113 20 203 -4 152 -19 213 -82 339 -153 308
-504 486 -842 424z"/>
<path d="M17488 6225 c-2 -2 -25 -6 -51 -9 -204 -27 -395 -207 -446 -419 -15
-61 -15 -179 -2 -239 49 -214 207 -374 417 -424 81 -19 224 -14 292 10 232 82
379 279 387 516 6 212 -122 419 -316 509 -46 21 -102 42 -124 45 -47 8 -152
15 -157 11z"/>
<path d="M2403 6188 c-311 -47 -520 -357 -453 -671 43 -205 225 -380 438 -421
331 -63 643 186 656 526 14 341 -301 618 -641 566z"/>
<path d="M9873 5349 c-397 -36 -705 -381 -704 -788 0 -53 3 -107 5 -121 3 -14
8 -38 11 -55 22 -113 112 -279 203 -372 103 -104 206 -166 349 -209 118 -35
296 -38 418 -5 221 59 402 203 503 401 39 75 59 127 67 172 3 13 7 34 10 48
11 48 13 227 3 276 -84 420 -442 691 -865 653z"/>
<path d="M13360 4545 c-119 -34 -226 -99 -306 -183 -55 -59 -120 -170 -150
-257 -25 -72 -28 -94 -28 -210 0 -110 4 -140 23 -195 27 -74 75 -169 99 -197
10 -10 30 -33 45 -52 135 -164 391 -254 612 -216 402 70 641 452 536 859 -27
106 -123 245 -226 328 -164 133 -404 182 -605 123z"/>
<path d="M6348 4539 c-207 -42 -372 -168 -463 -354 -56 -114 -75 -201 -71
-325 4 -109 8 -128 41 -215 79 -210 248 -359 469 -415 311 -78 641 85 776 383
41 92 58 181 55 289 -4 102 -8 125 -31 196 -50 146 -139 259 -274 347 -155
100 -322 131 -502 94z"/>
<path d="M14734 2154 c-145 -24 -261 -109 -322 -237 -37 -75 -46 -117 -44
-204 4 -243 205 -430 449 -419 43 3 95 9 116 16 86 26 173 92 227 172 209 314
-57 735 -426 672z"/>
<path d="M5195 2142 c-225 -22 -396 -208 -396 -432 0 -283 271 -492 542 -420
147 39 276 166 314 310 38 145 1 287 -104 402 -90 98 -228 153 -356 140z"/>
<path d="M9870 1863 c-171 -45 -279 -116 -361 -235 -153 -222 -131 -501 55
-692 110 -113 227 -167 376 -172 161 -6 303 50 415 162 215 216 213 568 -3
779 -61 58 -91 78 -168 115 -91 42 -239 63 -314 43z"/>
</g>
</svg>
