<?xml version="1.0" encoding="utf-8"?>
<!-- Generator: Adobe Illustrator 24.1.1, SVG Export Plug-In . SVG Version: 6.00 Build 0)  -->
<svg version="1.1" id="Layer_1" xmlns="http://www.w3.org/2000/svg" xmlns:xlink="http://www.w3.org/1999/xlink" x="0px" y="0px"
	 viewBox="0 0 500 500" style="enable-background:new 0 0 500 500;" xml:space="preserve">
<style type="text/css">
	.st0{fill:#3CC8C8;}
</style>
<g>
	<path class="st0" d="M245.52,82.37c7.96-4.15,17.67,5.48,13.44,13.42c-2.45,6.48-11.76,8.2-16.52,3.26
		C237.41,94.31,239.05,84.95,245.52,82.37 M159.96,91.59c4.83-1.99,10.95,2.44,10.46,7.71c0.51,5.72-6.48,9.93-11.4,7.21
		C152.48,103.98,153.23,93.38,159.96,91.59 M335.2,106.67c-7.55-0.91-8.75-12.79-1.48-15.18c5.64-2.75,10.81,2.41,11.64,7.75
		C344.18,103.81,340.36,107.99,335.2,106.67 M179.43,128.01c8.08-5.11,19.61,2.5,18.37,11.88c-0.42,9.48-13,14.97-20.11,8.56
		C170.82,143.42,171.86,131.88,179.43,128.01 M302.76,133.43c3.6-9.29,18.21-9.57,22.31-0.53c4.06,7.04-0.93,15.75-8.16,18.14
		C307.35,152.83,298.26,142.49,302.76,133.43 M235.22,150.52c-0.08-7.98,7.19-13.93,14.78-14.48c5.03,1.01,10.52,3.15,12.68,8.23
		c4.02,7.01,0.45,16.65-6.82,19.87c-3.33,1.86-7.26,1.16-10.88,0.95C239.45,162.37,234.79,157.05,235.22,150.52 M107.97,162.16
		c7.38-4.54,17.34,3.74,14.54,11.76c-1.54,6.94-10.86,9.76-16.19,5.33C100.64,175.1,101.54,165.12,107.97,162.16 M381.22,162.14
		c6.26-4.86,16.59,0.72,15.85,8.62c0.42,7.21-8.51,12.65-14.73,8.93C375.49,176.62,374.79,166.09,381.22,162.14 M271,176.49
		c10.33-3.71,22.61,0.73,28.5,9.94c7.77,11.26,3.64,28.41-8.42,34.88c-12.49,7.64-30.73,1.16-35.35-12.79
		C250.49,196.04,258.12,180.41,271,176.49 M210.38,177.72c11.45-5.41,26.86-0.87,32.4,10.84c6.51,11.4,1.48,27.28-10.16,33.17
		c-11.65,6.62-28.09,1.6-33.73-10.64C192.56,199.25,198.17,183.17,210.38,177.72 M149.67,198.48c0.87-7.38,7.83-12.18,14.85-12.68
		c7.57,0.91,13.61,6.79,14.43,14.45c-0.5,7.58-6.35,14.99-14.39,14.94C155.73,215.95,147.98,207.16,149.67,198.48 M328.97,187.4
		c9.07-5.28,21.67,2.41,21.27,12.83c0.62,11.04-13.32,18.83-22.36,12.35C318.5,207.19,319.23,192,328.97,187.4 M185.7,226.33
		c10.61-2.92,22.75,2.08,27.95,11.84c5.7,9.82,3.37,23.46-5.48,30.66c-11.36,10.56-32.3,6.32-38.35-8.09
		C162.88,247.52,171.32,229.81,185.7,226.33 M300.7,226.28c10.32-2.95,22.44,1.03,27.98,10.42c7.33,10.75,3.83,26.78-7.08,33.71
		c-11.44,8.05-29.15,3.82-35.44-8.76C278.52,248.64,286.2,230.25,300.7,226.28 M117.45,238.54c9.17-3.47,19.33,6.65,15.61,15.74
		c-2.27,8.28-13.94,11.34-19.97,5.24C106.04,253.78,108.65,241.03,117.45,238.54 M365.92,251.73c-0.26-7.6,5.29-14.32,13.08-14.74
		c6.28,0.99,12.38,6.06,11.89,12.89c0.57,9.03-10.3,15.16-17.99,10.92C369.29,258.97,367.44,255.27,365.92,251.73 M72.37,243
		c5.52-2.41,12.34,2.37,11.08,8.5c-0.3,6.94-10.53,9.6-14.3,3.81C65.83,251.28,67.82,245.07,72.37,243z M420.12,242.86
		c3.88-2.76,10.11-0.78,11.65,3.76c2.61,4.95-2.18,11.74-7.75,10.91C416.19,258.24,413.65,246.31,420.12,242.86 M215.66,276.15
		c14.51-3.77,30.11,8.33,30.2,23.27c0.95,15.1-14.42,28.49-29.27,25c-11.48-1.85-20.49-12.91-20.12-24.51
		C196.44,288.81,204.81,278.5,215.66,276.15 M273.13,276.12c14.73-4.12,30.8,8.2,30.56,23.49c0.78,14.82-14.11,27.76-28.65,24.82
		c-13.69-1.77-23.79-16.81-19.97-30.09C257.01,285.49,264.4,278.29,273.13,276.12 M162.32,285.32c10.19-1.74,19.75,9.63,15.61,19.31
		c-3.01,10.31-18.02,13.11-24.66,4.69C145.49,301.22,151.3,286.43,162.32,285.32 M330.87,285.77c9.09-3.81,20.24,4.06,19.55,13.92
		c0.36,10.86-13.41,18.35-22.3,12.01C318.05,306.01,319.88,289.26,330.87,285.77 M377.98,333.02c-3.56-6.63,2.91-15.43,10.27-14.2
		c3.67-0.06,6.23,2.83,8.58,5.25c0.48,3.93,1.29,8.62-1.97,11.65C390.42,341.34,380.39,339.74,377.98,333.02 M107.94,320.67
		c6.88-4.58,16.79,2.25,15.24,10.3c-0.82,7.12-9.79,11.19-15.7,7.15C101.15,334.45,101.38,324.01,107.94,320.67 M243.94,335.57
		c9.01-3.98,20.49,3.87,19.64,13.8c0.67,10.97-13.53,18.56-22.34,11.98C231.45,355.69,233.08,339.05,243.94,335.57 M180.95,350.27
		c7.68-4.04,17.98,2.94,17.28,11.53c0.23,7.05-6.65,13.07-13.61,12.02c-5.77-0.12-9.52-5.29-11.37-10.21
		C173.34,358.25,175.54,352.29,180.95,350.27 M308.54,350.39c7.89-4.88,19.11,2.13,18.37,11.32c0.2,9.6-12.48,15.75-19.83,9.44
		C299.97,366.21,300.83,354.32,308.54,350.39 M330.73,405.25c-3.51-5.31,0.62-11.71,6.32-12.92c4.58,0.93,9.43,4.38,8.47,9.69
		C344.85,409.21,334.33,411.41,330.73,405.25 M154.6,400.63c1.4-4.21,4.79-8.4,9.74-7.3c7.23,0.51,9.37,11.4,3.05,14.76
		C161.7,411.93,155.1,406.67,154.6,400.63 M239.57,405.46c1.38-6.23,9.45-9.26,14.76-5.95c3.51,1.51,4.54,5.44,5.44,8.78
		c-0.48,1.74-0.91,3.48-1.34,5.22c-2.18,2.58-4.97,5.16-8.59,5.06C243.11,419.36,237.04,411.76,239.57,405.46"/>
</g>
</svg>
